<svg xmlns="http://www.w3.org/2000/svg"><defs><symbol id="layout-dashboard" viewBox="0 0 24 24"><rect width="7" height="9" x="3" y="3" rx="1" />
  <rect width="7" height="5" x="14" y="3" rx="1" />
  <rect width="7" height="9" x="14" y="12" rx="1" />
  <rect width="7" height="5" x="3" y="16" rx="1" /></symbol><symbol id="message-square" viewBox="0 0 24 24"><path d="M22 17a2 2 0 0 1-2 2H6.828a2 2 0 0 0-1.414.586l-2.202 2.202A.71.71 0 0 1 2 21.286V5a2 2 0 0 1 2-2h16a2 2 0 0 1 2 2z" /></symbol><symbol id="list-todo" viewBox="0 0 24 24"><path d="M13 5h8" />
  <path d="M13 12h8" />
  <path d="M13 19h8" />
  <path d="m3 17 2 2 4-4" />
  <rect x="3" y="4" width="6" height="6" rx="1" /></symbol><symbol id="bot" viewBox="0 0 24 24"><path d="M12 8V4H8" />
  <rect width="16" height="12" x="4" y="8" rx="2" />
  <path d="M2 14h2" />
  <path d="M20 14h2" />
  <path d="M15 13v2" />
  <path d="M9 13v2" /></symbol><symbol id="files" viewBox="0 0 24 24"><path d="M15 2h-4a2 2 0 0 0-2 2v11a2 2 0 0 0 2 2h8a2 2 0 0 0 2-2V8" />
  <path d="M16.706 2.706A2.4 2.4 0 0 0 15 2v5a1 1 0 0 0 1 1h5a2.4 2.4 0 0 0-.706-1.706z" />
  <path d="M5 7a2 2 0 0 0-2 2v11a2 2 0 0 0 2 2h8a2 2 0 0 0 1.732-1" /></symbol><symbol id="settings" viewBox="0 0 24 24"><path d="M9.671 4.136a2.34 2.34 0 0 1 4.659 0 2.34 2.34 0 0 0 3.319 1.915 2.34 2.34 0 0 1 2.33 4.033 2.34 2.34 0 0 0 0 3.831 2.34 2.34 0 0 1-2.33 4.033 2.34 2.34 0 0 0-3.319 1.915 2.34 2.34 0 0 1-4.659 0 2.34 2.34 0 0 0-3.32-1.915 2.34 2.34 0 0 1-2.33-4.033 2.34 2.34 0 0 0 0-3.831A2.34 2.34 0 0 1 6.35 6.051a2.34 2.34 0 0 0 3.319-1.915" />
  <circle cx="12" cy="12" r="3" /></symbol><symbol id="search" viewBox="0 0 24 24"><path d="m21 21-4.34-4.34" />
  <circle cx="11" cy="11" r="8" /></symbol><symbol id="plus" viewBox="0 0 24 24"><path d="M5 12h14" />
  <path d="M12 5v14" /></symbol><symbol id="ellipsis" viewBox="0 0 24 24"><circle cx="12" cy="12" r="1" />
  <circle cx="19" cy="12" r="1" />
  <circle cx="5" cy="12" r="1" /></symbol><symbol id="external-link" viewBox="0 0 24 24"><path d="M15 3h6v6" />
  <path d="M10 14 21 3" />
  <path d="M18 13v6a2 2 0 0 1-2 2H5a2 2 0 0 1-2-2V8a2 2 0 0 1 2-2h6" /></symbol><symbol id="arrow-right" viewBox="0 0 24 24"><path d="M5 12h14" />
  <path d="m12 5 7 7-7 7" /></symbol><symbol id="chevron-down" viewBox="0 0 24 24"><path d="m6 9 6 6 6-6" /></symbol><symbol id="check" viewBox="0 0 24 24"><path d="M20 6 9 17l-5-5" /></symbol><symbol id="circle-check" viewBox="0 0 24 24"><circle cx="12" cy="12" r="10" />
  <path d="m16 9-5.5 5.5L8 12" /></symbol><symbol id="circle-alert" viewBox="0 0 24 24"><circle cx="12" cy="12" r="10" />
  <line x1="12" x2="12" y1="8" y2="12" />
  <line x1="12" x2="12.01" y1="16" y2="16" /></symbol><symbol id="circle-x" viewBox="0 0 24 24"><circle cx="12" cy="12" r="10" />
  <path d="m15 9-6 6" />
  <path d="m9 9 6 6" /></symbol><symbol id="loader-circle" viewBox="0 0 24 24"><path d="M21 12a9 9 0 1 1-6.219-8.56" /></symbol><symbol id="x" viewBox="0 0 24 24"><path d="M18 6 6 18" />
  <path d="m6 6 12 12" /></symbol><symbol id="panel-left" viewBox="0 0 24 24"><rect width="18" height="18" x="3" y="3" rx="2" />
  <path d="M9 3v18" /></symbol><symbol id="download" viewBox="0 0 24 24"><path d="M12 15V3" />
  <path d="M21 15v4a2 2 0 0 1-2 2H5a2 2 0 0 1-2-2v-4" />
  <path d="m7 10 5 5 5-5" /></symbol><symbol id="sun" viewBox="0 0 24 24"><circle cx="12" cy="12" r="4" />
  <path d="M12 2v2" />
  <path d="M12 20v2" />
  <path d="m4.93 4.93 1.41 1.41" />
  <path d="m17.66 17.66 1.41 1.41" />
  <path d="M2 12h2" />
  <path d="M20 12h2" />
  <path d="m6.34 17.66-1.41 1.41" />
  <path d="m19.07 4.93-1.41 1.41" /></symbol><symbol id="moon" viewBox="0 0 24 24"><path d="M20.985 12.486a9 9 0 1 1-9.473-9.472c.405-.022.617.46.402.803a6 6 0 0 0 8.268 8.268c.344-.215.825-.004.803.401" /></symbol><symbol id="shield-check" viewBox="0 0 24 24"><path d="M20 13c0 5-3.5 7.5-7.66 8.95a1 1 0 0 1-.67-.01C7.5 20.5 4 18 4 13V6a1 1 0 0 1 1-1c2 0 4.5-1.2 6.24-2.72a1.17 1.17 0 0 1 1.52 0C14.51 3.81 17 5 19 5a1 1 0 0 1 1 1z" />
  <path d="m9 12 2 2 4-4" /></symbol><symbol id="file-text" viewBox="0 0 24 24"><path d="M6 22a2 2 0 0 1-2-2V4a2 2 0 0 1 2-2h8a2.4 2.4 0 0 1 1.704.706l3.588 3.588A2.4 2.4 0 0 1 20 8v12a2 2 0 0 1-2 2z" />
  <path d="M14 2v5a1 1 0 0 0 1 1h5" />
  <path d="M10 9H8" />
  <path d="M16 13H8" />
  <path d="M16 17H8" /></symbol></defs></svg>
